# AST/ASF file generated using VICON BodyLanguage
# -----------------------------------------------
:version 1.10
:name VICON
:units
  mass 1.0
  length 0.45
  angle deg
:documentation
   .ast/.asf automatically generated from VICON data using
   VICON BodyBuilder and BodyLanguage model FoxedUp or BRILLIANT.MOD
:root
   order TX TY TZ RX RY RZ
   axis XYZ
   position 0 0 0  
   orientation 0 0 0 
:bonedata
  begin
     id 1 
     name lhipjoint
     direction 0.573633 -0.743009 0.344793 
     length 2.46257 
     axis 0 0 0  XYZ
  end
  begin
     id 2 
     name lfemur
     direction 0.34202 -0.939693 0  
     length 7.3842  
     axis 0 0 20  XYZ
    dof rx ry rz
    limits (-160.0 20.0)
           (-70.0 70.0)
           (-60.0 70.0)
  end
  begin
     id 3 
     name ltibia
     direction 0.34202 -0.939693 0   
     length 7.50407   
     axis 0 0 20   XYZ
    dof rx
    limits (-10.0 170.0)
  end
  begin
     id 4 
     name lfoot
     direction 0.110749 -0.304281 0.946123   
     length 1.95925   
     axis -90 7.62852e-016 20   XYZ
    dof rx rz
    limits (-45.0 90.0)
           (-70.0 20.0)
  end
  begin
     id 5 
     name ltoes
     direction 1.53554e-011 -4.21843e-011 1   
     length 0.978318   
     axis -90 7.62852e-016 20   XYZ
    dof rx
    limits (-90.0 20.0)
  end
  begin
     id 6 
     name rhipjoint
     direction -0.488109 -0.791693 0.367385   
     length 2.31113  
     axis 0 0 0  XYZ 
  end
  begin
     id 7 
     name rfemur
     direction -0.34202 -0.939693 0   
     length 7.40965   
     axis 0 0 -20   XYZ
    dof rx ry rz
    limits (-160.0 20.0)
           (-70.0 70.0)
           (-70.0 60.0)
  end
  begin
     id 8 
     name rtibia
     direction -0.34202 -0.939693 0   
     length 7.55548   
     axis 0 0 -20   XYZ
    dof rx
    limits (-10.0 170.0)
 end
 begin
     id 9 
     name rfoot
     direction -0.127594 -0.350561 0.927808   
     length 2.07199  
     axis -90 -7.62852e-016 -20   XYZ
    dof rx rz
    limits (-45.0 90.0)
           (-20.0 70.0)
  end
  begin
     id 10 
     name rtoes
     direction -1.53542e-011 -4.21909e-011 1   
     length 1.02667   
     axis -90 -7.62852e-016 -20   XYZ
    dof rx
    limits (-90.0 20.0)
  end
  begin
     id 11 
     name lowerback
     direction -0.0103342 0.997298 -0.0727278   
     length 2.02836   
     axis 0 0 0   XYZ
    dof rx ry rz
    limits (-20.0 45.0)
           (-30.0 30.0)
           (-30.0 30.0)
  end
  begin
     id 12 
     name upperback
     direction 0.0171146 0.999786 -0.011606   
     length 2.03179   
     axis 0 0 0   XYZ
    dof rx ry rz
    limits (-20.0 45.0)
           (-30.0 30.0)
           (-30.0 30.0)
  end
  begin
     id 13 
     name thorax
     direction 0.0216927 0.999513 0.0224343   
     length 2.03882   
     axis 0 0 0   XYZ
    dof rx ry rz
    limits (-20.0 45.0)
           (-30.0 30.0)
           (-30.0 30.0)
  end
  begin
     id 14 
     name lowerneck
     direction 0.000989287 0.993907 0.110221   
     length 1.75428   
     axis 0 0 0   XYZ
    dof rx ry rz
    limits (-20.0 45.0)
           (-30.0 30.0)
           (-30.0 30.0)
  end
  begin
     id 15 
     name upperneck
     direction -0.0172474 0.994813 -0.100253   
     length 1.77058   
     axis 0 0 0   XYZ
    dof rx ry rz
    limits (-20.0 45.0)
           (-30.0 30.0)
           (-30.0 30.0)
  end
  begin
     id 16
     name head
     direction -0.00486455 0.99894 -0.0457663  
     length 1.77427  
     axis 0 0 0   XYZ
    dof rx ry rz
    limits (-20.0 45.0)
           (-30.0 30.0)
           (-30.0 30.0)
  end
  begin
     id 17 
     name lclavicle
     direction 0.927314 0.333734 -0.169441  
     length 3.97584  
     axis 0 0 0   XYZ
    dof ry rz
    limits (-20.0 10.0)
           (0.0 20.0)
  end
  begin
     id 18 
     name lhumerus
     direction 1 -4.48965e-011 -3.25313e-028   
     length 4.76468   
     axis 180 -30 -90   XYZ
    dof rx ry rz
    limits (-60.0 90.0)
           (-90.0 90.0)
           (-90.0 90.0)
  end
  begin
     id 19
     name lradius
     direction 1 -4.48969e-011 -2.8465e-028   
     length 3.52712   
     axis -180 -30 -90   XYZ
    dof rx
    limits (-10.0 170.0)
  end
  begin
     id 20
     name lwrist
     direction 1 -4.4896e-011 -7.78665e-028   
     length 1.76356   
     axis 1.91374e-015 90 90   XYZ
    dof ry
    limits (-180.0 0.0)
 end
  begin
     id 21 
     name lhand
     direction 1 -4.48959e-011 -1.55733e-027   
     length 0.859564   
     axis 9.9371e-016 90 90   XYZ
    dof rx rz
    limits (-90.0 90.0)
           (-45.0 45.0)
  end
  begin
     id 22 
     name lfingers
     direction 1 -4.48965e-011 -3.11466e-027   
     length 0.693002   
     axis 1.98742e-015 90 90   XYZ
    dof rx
    limits (0.0 90.0)
  end
  begin
     id 23
     name lthumb
     direction 0.707107 -6.34948e-011 0.707107   
     length 0.995017   
     axis -90 45 2.85299e-015   XYZ
    dof rx rz
    limits (-45.0 45.0)
           (-45.0 45.0)
  end
  begin
     id 24 
     name rclavicle
     direction -0.899388 0.348209 -0.264294   
     length 3.68366  
     axis 0 0 0   XYZ 
    dof ry rz
    limits (-10.0 20.0)
           (-20.0 0.0)
  end
  begin
     id 25 
     name rhumerus
     direction -1 -4.48965e-011 -3.01536e-027  
     length 4.90577   
     axis 180 30 90   XYZ
    dof rx ry rz
    limits (-90.0 60.0)
           (-90.0 90.0)
           (-90.0 90.0)
  end
  begin
     id 26 
     name rradius
     direction -1 -4.48966e-011 3.93291e-027   
     length 3.42692   
     axis -180 30 90   XYZ
    dof rx
    limits (-10.0 170.0)
  end
  begin
     id 27 
     name rwrist
     direction -1 -4.48969e-011 -7.78665e-028   
     length 1.71346   
     axis 1.91374e-015 -90 -90   XYZ
    dof ry
    limits (-180.0 0.0)
  end
  begin
     id 28
     name rhand
     direction -1 -4.48967e-011 -1.55733e-027   
     length 0.740957   
     axis 9.9371e-016 -90 -90   XYZ
    dof rx rz
    limits (-90.0 90.0)
           (-45.0 45.0)
  end
  begin
     id 29
     name rfingers
     direction -1 -4.48949e-011 -3.11466e-027   
     length 0.597378   
     axis 1.98742e-015 -90 -90   XYZ
    dof rx
    limits (0.0 90.0)
  end
  begin
     id 30
     name rthumb
     direction -0.707107 -6.34931e-011 0.707107   
     length 0.857719   
     axis -90 -45 -2.85299e-015   XYZ
    dof rx rz
    limits (-45.0 45.0)
           (-45.0 45.0)
  end
:hierarchy
  begin
    root lhipjoint rhipjoint lowerback
    lhipjoint lfemur
    lfemur ltibia
    ltibia lfoot
    lfoot ltoes
    rhipjoint rfemur
    rfemur rtibia
    rtibia rfoot
    rfoot rtoes
    lowerback upperback
    upperback thorax
    thorax lowerneck lclavicle rclavicle
    lowerneck upperneck
    upperneck head
    lclavicle lhumerus
    lhumerus lradius
    lradius lwrist
    lwrist lhand lthumb
    lhand lfingers
    rclavicle rhumerus
    rhumerus rradius
    rradius rwrist
    rwrist rhand rthumb
    rhand rfingers
  end

#!OML:ASF E:\I on waltz\AllaLogoMonkeySwing\Project 1\Capture day 1\Session 1\Subject1.ASF
:FULLY-SPECIFIED
:DEGREES
174
root 13.2371 16.869 18.3943 -17.5876 43.3583 -4.71876
lowerback 10.6199 0.390882 -5.99312
upperback -0.329396 -0.1967 0.460037
thorax -6.30243 0.108105 3.89929
lowerneck -10.7532 1.53006 -0.635211
upperneck 25.5933 2.15419 1.62893
head 9.84783 1.22578 0.943985
rclavicle 1.05157e-013 -1.35174e-014
rhumerus -47.5624 -29.7906 -65.7478
rradius 42.8474
rwrist -20.353
rhand -13.7086 -38.043
rfingers 7.12502
rthumb 12.4101 -67.6546
lclavicle 1.05157e-013 -1.35174e-014
lhumerus -57.9324 42.3701 54.8765
lradius 41.0399
lwrist 17.8276
lhand -24.755 -14.2794
lfingers 7.12502
lthumb 1.74819 15.6932
rfemur -5.02791 -8.02859 21.7043
rtibia 41.1872
rfoot -18.3215 -9.19525
rtoes 18.999
lfemur -5.40998 3.02434 -16.5857
ltibia 45.4193
lfoot -17.2489 17.9579
ltoes -44.1248
175
root 13.3335 17.1201 18.5634 -17.036 43.5675 -5.19981
lowerback 9.86789 0.271235 -5.65855
upperback -0.791794 -0.283923 0.444771
thorax -6.3588 0.0645393 3.70307
lowerneck -10.8901 1.44417 -0.737238
upperneck 26.2927 2.05619 1.69569
head 10.1262 1.18302 0.98638
rclavicle 1.98785e-015 -4.77083e-015
rhumerus -47.0821 -32.5688 -65.923
rradius 36.0395
rwrist -15.5918
rhand -14.9038 -35.2102
rfingers 7.12502
rthumb 11.2576 -64.8881
lclavicle 1.98785e-015 -4.77083e-015
lhumerus -56.8531 41.5088 59.0428
lradius 40.3786
lwrist 15.5559
lhand -22.8927 -15.7799
lfingers 7.12502
lthumb 3.54668 14.1703
rfemur -3.41235 -7.52397 22.3199
rtibia 37.4914
rfoot -16.709 -9.52128
rtoes 18.9197
lfemur -4.2522 2.97049 -15.8897
ltibia 42.5278
lfoot -17.8315 16.2446
ltoes -42.9787
176
root 13.4682 17.3601 18.7363 -16.1047 43.6022 -5.11867
lowerback 8.54268 0.216907 -5.34279
upperback -1.02342 -0.254333 0.316385
thorax -5.8547 0.0555655 3.37473
lowerneck -11.1323 1.41178 -1.06034
upperneck 26.6202 2.03733 1.89344
head 10.2864 1.16668 1.11776
rclavicle -1.68967e-014 -1.35174e-014
rhumerus -47.1858 -35.7597 -64.9858
rradius 29.8601
rwrist -7.24296
rhand -11.6637 -33.7319
rfingers 7.12502
rthumb 14.381 -63.2137
lclavicle -1.68967e-014 -1.35174e-014
lhumerus -55.7496 40.3533 63.0916
lradius 40.3446
lwrist 9.5527
lhand -21.9027 -18.5531
lfingers 7.12502
lthumb 4.50273 11.3791
rfemur -1.64227 -7.18693 22.287
rtibia 33.8131
rfoot -15.0974 -9.3062
rtoes 18.236
lfemur -2.76716 2.7399 -15.9641
ltibia 39.37
lfoot -18.2666 14.4347
ltoes -42.1644
177
root 13.5675 17.5619 18.8862 -15.0279 43.4829 -4.66451
lowerback 7.96538 0.34427 -5.38442
upperback -1.34272 -0.0690232 0.214678
thorax -5.88255 0.153439 3.26431
lowerneck -11.7187 1.36202 -1.20109
upperneck 27.1376 2.0766 1.66278
head 10.5935 1.14377 1.08096
rclavicle 9.00495e-014 4.85035e-014
rhumerus -48.2136 -38.7795 -63.0284
rradius 25.1341
rwrist 3.44682
rhand -11.315 -32.6633
rfingers 7.12502
rthumb 14.717 -62.1209
lclavicle 9.00495e-014 4.85035e-014
lhumerus -54.6848 38.7418 66.8359
lradius 40.4607
lwrist 0.814844
lhand -20.6214 -20.3731
lfingers 7.12502
lthumb 5.73987 9.52914
rfemur -0.323083 -6.46169 22.2019
rtibia 30.7303
rfoot -13.3213 -9.57754
rtoes 18.6261
lfemur -1.63328 2.51725 -16.1869
ltibia 36.7375
lfoot -18.803 12.7919
ltoes -41.7558
178
root 13.6693 17.7296 19.0177 -14.5461 43.1431 -5.00456
lowerback 7.55074 0.488527 -4.54481
upperback -1.63257 0.223842 0.248808
thorax -5.97351 0.276573 2.78876
lowerneck -12.1578 1.40131 -1.11368
upperneck 27.3459 2.2436 1.22631
head 10.7633 1.17613 0.939507
rclavicle 2.10712e-014 4.29375e-014
rhumerus -49.5351 -41.0193 -61.1493
rradius 21.7164
rwrist 12.4863
rhand -13.9647 -31.6005
rfingers 7.12502
rthumb 12.1631 -61.2269
lclavicle 2.10712e-014 4.29375e-014
lhumerus -53.1385 36.0382 71.1609
lradius 40.9015
lwrist -5.26845
lhand -19.3585 -23.726
lfingers 7.12502
lthumb 6.95909 6.13963
rfemur 0.76354 -6.10746 22.7246
rtibia 28.1306
rfoot -11.399 -9.62856
rtoes 17.6803
lfemur -0.548489 2.22003 -15.7319
ltibia 34.2265
lfoot -19.3576 11.3495
ltoes -41.2125
179
root 13.7679 17.8618 19.138 -13.8568 42.8 -5.17204
lowerback 6.92858 0.578949 -3.84182
upperback -1.76454 0.440305 0.300533
thorax -5.76736 0.357235 2.42141
lowerneck -12.5427 1.64381 -0.811718
upperneck 27.1435 2.67301 0.655062
head 10.7729 1.33189 0.739282
rclavicle 8.34896e-015 1.03368e-014
rhumerus -50.2778 -42.4808 -60.0461
rradius 19.4736
rwrist 18.9512
rhand -15.6982 -31.7292
rfingers 7.12502
rthumb 10.4913 -61.4474
lclavicle 8.34896e-015 1.03368e-014
lhumerus -52.167 34.3736 74.1729
lradius 41.9557
lwrist -12.3817
lhand -17.4692 -26.7611
lfingers 7.12502
lthumb 8.78258 3.03617
rfemur 1.50785 -5.99065 23.0172
rtibia 25.9802
rfoot -9.70838 -9.35054
rtoes 16.3253
lfemur 0.349004 1.89511 -15.4484
ltibia 31.8522
lfoot -19.7565 10.228
ltoes -40.5689
180
root 13.8609 17.9612 19.2532 -12.9726 42.519 -5.02399
lowerback 6.32389 0.711637 -3.4801
upperback -1.81682 0.675234 0.340365
thorax -5.48909 0.457364 2.2355
lowerneck -12.8621 1.87155 -0.606918
upperneck 26.6734 3.07173 0.14886
head 10.6714 1.47117 0.57205
rclavicle 9.79014e-014 1.11319e-014
rhumerus -49.9017 -42.4874 -60.5777
rradius 18.3451
rwrist 21.5936
rhand -15.9703 -32.2378
rfingers 7.12502
rthumb 10.2288 -61.9691
lclavicle 9.79014e-014 1.11319e-014
lhumerus -51.5543 33.4688 76.2826
lradius 43.3337
lwrist -17.9092
lhand -14.2814 -30.4948
lfingers 7.12502
lthumb 11.8578 -0.850584
rfemur 2.11138 -5.92606 22.9597
rtibia 24.0644
rfoot -8.48638 -8.96601
rtoes 15.8995
lfemur 1.20021 1.6303 -15.4332
ltibia 29.576
lfoot -20.1594 9.41815
ltoes -40.0723
181
root 13.9467 18.0279 19.3624 -12.2081 42.3468 -4.88021
lowerback 6.00515 0.891101 -3.13775
upperback -1.85749 0.956927 0.392407
thorax -5.36266 0.584657 2.06912
lowerneck -13.2048 2.01785 -0.433393
upperneck 26.1684 3.37295 -0.419231
head 10.5664 1.55556 0.377356
rclavicle 4.25399e-014 -1.59028e-015
rhumerus -48.3923 -40.6596 -63.0305
rradius 18.4089
rwrist 20.5833
rhand -14.2971 -32.9079
rfingers 7.12502
rthumb 11.8426 -62.553
lclavicle 4.25399e-014 -1.59028e-015
lhumerus -50.4811 31.3958 78.8329
lradius 45.1344
lwrist -19.3323
lhand -9.93752 -32.704
lfingers 7.12502
lthumb 16.0438 -3.34827
rfemur 2.72697 -5.90904 22.8353
rtibia 22.3619
rfoot -7.56435 -8.5284
rtoes 14.9417
lfemur 2.053 1.46272 -15.4034
ltibia 27.4925
lfoot -20.5962 8.82977
ltoes -39.7642
182
root 14.024 18.0657 19.4644 -11.2868 42.2857 -4.47648
lowerback 5.83096 1.0139 -3.03007
upperback -1.88545 1.13682 0.42625
thorax -5.30193 0.6702 2.02664
lowerneck -13.6798 2.19844 -0.346826
upperneck 25.7389 3.74025 -0.975315
head 10.5167 1.6618 0.214706
rclavicle 7.2457e-014 2.06736e-014
rhumerus -46.3635 -37.5064 -66.5035
rradius 19.4292
rwrist 17.4996
rhand -11.6742 -33.4769
rfingers 7.12502
rthumb 14.3709 -62.9595
lclavicle 7.2457e-014 2.06736e-014
lhumerus -49.1132 28.2702 81.7795
lradius 47.0287
lwrist -18.4138
lhand -7.74892 -31.3091
lfingers 7.12502
lthumb 18.1504 -2.13596
rfemur 3.22916 -5.84832 22.4699
rtibia 20.8731
rfoot -6.78384 -8.08446
rtoes 14.3324
lfemur 2.72817 1.40549 -15.6199
ltibia 25.7474
lfoot -20.8733 8.4523
ltoes -39.6576
